<mxfile host="65bd71144e">
    <diagram name="Page-1" id="90a13364-a465-7bf4-72fc-28e22215d7a0">
        <mxGraphModel dx="1046" dy="715" grid="1" gridSize="10" guides="1" tooltips="1" connect="1" arrows="1" fold="1" page="1" pageScale="1.5" pageWidth="1169" pageHeight="826" background="none" math="0" shadow="0">
            <root>
                <mxCell id="0" style=";html=1;"/>
                <mxCell id="1" style=";html=1;" parent="0"/>
                <mxCell id="14" value="DC Power supply" style="rounded=0;whiteSpace=wrap;html=1;fontColor=#009900;fillStyle=auto;fillColor=none;dashed=1;verticalAlign=top;" parent="1" vertex="1">
                    <mxGeometry x="575.5" y="460" width="163" height="274" as="geometry"/>
                </mxCell>
                <mxCell id="3" value="" style="edgeStyle=none;html=1;fontColor=#009900;" parent="1" source="3a17f1ce550125da-1" target="2" edge="1">
                    <mxGeometry relative="1" as="geometry"/>
                </mxCell>
                <mxCell id="5" style="edgeStyle=none;html=1;exitX=0;exitY=1;exitDx=0;exitDy=0;fontColor=#009900;dashed=1;dashPattern=8 8;" parent="1" source="3a17f1ce550125da-1" edge="1">
                    <mxGeometry relative="1" as="geometry">
                        <mxPoint x="797" y="450" as="targetPoint"/>
                    </mxGeometry>
                </mxCell>
                <mxCell id="6" value="&lt;a href=&quot;https://github.com/turfptax/ugit&quot;&gt;OTA&lt;/a&gt;" style="edgeLabel;html=1;align=center;verticalAlign=middle;resizable=0;points=[];fontColor=#009900;" parent="5" vertex="1" connectable="0">
                    <mxGeometry x="-0.2933" y="-3" relative="1" as="geometry">
                        <mxPoint x="3" y="17" as="offset"/>
                    </mxGeometry>
                </mxCell>
                <mxCell id="3a17f1ce550125da-1" value="Software Control (IOT -GitHub)" style="whiteSpace=wrap;html=1;shadow=1;fontSize=20;fillColor=none;strokeColor=#666666;strokeWidth=2;dashed=1;fontColor=#009900;" parent="1" vertex="1">
                    <mxGeometry x="797" y="220" width="153" height="80" as="geometry"/>
                </mxCell>
                <mxCell id="3a17f1ce550125da-13" style="edgeStyle=elbowEdgeStyle;rounded=0;html=1;startArrow=classic;startFill=1;jettySize=auto;orthogonalLoop=1;fontSize=18;elbow=vertical;fontColor=#009900;" parent="1" source="3a17f1ce550125da-2" target="3a17f1ce550125da-4" edge="1">
                    <mxGeometry relative="1" as="geometry"/>
                </mxCell>
                <mxCell id="3a17f1ce550125da-14" style="edgeStyle=elbowEdgeStyle;rounded=0;html=1;startArrow=classic;startFill=1;jettySize=auto;orthogonalLoop=1;fontSize=18;elbow=vertical;fontColor=#009900;" parent="1" source="3a17f1ce550125da-2" target="3a17f1ce550125da-5" edge="1">
                    <mxGeometry relative="1" as="geometry"/>
                </mxCell>
                <mxCell id="3a17f1ce550125da-16" style="edgeStyle=elbowEdgeStyle;rounded=0;html=1;startArrow=none;startFill=0;jettySize=auto;orthogonalLoop=1;fontSize=18;elbow=vertical;fontColor=#009900;" parent="1" source="3a17f1ce550125da-2" target="3a17f1ce550125da-7" edge="1">
                    <mxGeometry relative="1" as="geometry"/>
                </mxCell>
                <mxCell id="3a17f1ce550125da-2" value="&lt;font&gt;Microcontroller&lt;br&gt;(Raspberry Pico W)&lt;br&gt;&lt;/font&gt;" style="whiteSpace=wrap;html=1;shadow=1;fontSize=18;fillColor=#f5f5f5;strokeColor=#666666;fontColor=#009900;" parent="1" vertex="1">
                    <mxGeometry x="787" y="454" width="170" height="280" as="geometry"/>
                </mxCell>
                <mxCell id="3a17f1ce550125da-4" value="Soil Sensor (I2C)" style="whiteSpace=wrap;html=1;shadow=1;fontSize=18;fillColor=#f5f5f5;strokeColor=#666666;fontColor=#009900;" parent="1" vertex="1">
                    <mxGeometry x="1037" y="444" width="120" height="60" as="geometry"/>
                </mxCell>
                <mxCell id="3a17f1ce550125da-5" value="Environmental Sensor (I2C)" style="whiteSpace=wrap;html=1;shadow=1;fontSize=18;fillColor=#f5f5f5;strokeColor=#666666;fontColor=#009900;" parent="1" vertex="1">
                    <mxGeometry x="1037" y="524" width="120" height="60" as="geometry"/>
                </mxCell>
                <mxCell id="12" style="edgeStyle=none;html=1;entryX=1.006;entryY=0.643;entryDx=0;entryDy=0;entryPerimeter=0;fontColor=#009900;startArrow=none;startFill=0;" parent="1" source="3a17f1ce550125da-6" target="3a17f1ce550125da-2" edge="1">
                    <mxGeometry relative="1" as="geometry"/>
                </mxCell>
                <mxCell id="3a17f1ce550125da-6" value="Button(s)" style="whiteSpace=wrap;html=1;shadow=1;fontSize=18;fillColor=#f5f5f5;strokeColor=#666666;fontColor=#009900;" parent="1" vertex="1">
                    <mxGeometry x="1037" y="604" width="120" height="60" as="geometry"/>
                </mxCell>
                <mxCell id="3a17f1ce550125da-7" value="Valve&amp;nbsp;" style="whiteSpace=wrap;html=1;shadow=1;fontSize=18;fillColor=#f5f5f5;strokeColor=#666666;fontColor=#009900;" parent="1" vertex="1">
                    <mxGeometry x="1037" y="684" width="120" height="60" as="geometry"/>
                </mxCell>
                <mxCell id="16" style="edgeStyle=none;html=1;fontColor=#009900;startArrow=none;startFill=0;entryX=-0.012;entryY=0.779;entryDx=0;entryDy=0;entryPerimeter=0;" parent="1" source="3a17f1ce550125da-8" target="25" edge="1">
                    <mxGeometry relative="1" as="geometry">
                        <mxPoint x="780" y="671" as="targetPoint"/>
                    </mxGeometry>
                </mxCell>
                <mxCell id="3a17f1ce550125da-8" value="Powerbank (5000mAh)" style="whiteSpace=wrap;html=1;shadow=1;fontSize=18;fillColor=none;strokeColor=#666666;fontColor=#009900;" parent="1" vertex="1">
                    <mxGeometry x="597" y="629" width="120" height="84" as="geometry"/>
                </mxCell>
                <mxCell id="4" value="" style="edgeStyle=none;html=1;fontColor=#009900;startArrow=classic;startFill=1;" parent="1" source="2" target="3a17f1ce550125da-2" edge="1">
                    <mxGeometry relative="1" as="geometry"/>
                </mxCell>
                <mxCell id="28" style="edgeStyle=none;html=1;entryX=0;entryY=0.5;entryDx=0;entryDy=0;fontColor=#009900;startArrow=none;startFill=0;" parent="1" source="2" target="27" edge="1">
                    <mxGeometry relative="1" as="geometry"/>
                </mxCell>
                <mxCell id="2" value="occasional connection" style="ellipse;shape=cloud;whiteSpace=wrap;html=1;fontColor=#009900;" parent="1" vertex="1">
                    <mxGeometry x="812" y="330" width="120" height="80" as="geometry"/>
                </mxCell>
                <mxCell id="10" style="edgeStyle=none;html=1;fontColor=#009900;startArrow=none;startFill=0;" parent="1" source="9" target="3a17f1ce550125da-8" edge="1">
                    <mxGeometry relative="1" as="geometry"/>
                </mxCell>
                <mxCell id="9" value="Solarpanel&lt;br&gt;(? W)" style="whiteSpace=wrap;html=1;shadow=1;fontSize=18;fillColor=#f5f5f5;strokeColor=#666666;fontColor=#009900;" parent="1" vertex="1">
                    <mxGeometry x="597" y="504" width="120" height="84" as="geometry"/>
                </mxCell>
                <mxCell id="17" value="Soil Sensor (I2C)" style="whiteSpace=wrap;html=1;shadow=1;fontSize=18;fillColor=#f5f5f5;strokeColor=#666666;fontColor=#009900;" parent="1" vertex="1">
                    <mxGeometry x="1037" y="444" width="120" height="60" as="geometry"/>
                </mxCell>
                <mxCell id="18" value="Environmental Sensor (I2C)" style="whiteSpace=wrap;html=1;shadow=1;fontSize=18;fillColor=#f5f5f5;strokeColor=#666666;fontColor=#009900;" parent="1" vertex="1">
                    <mxGeometry x="1037" y="524" width="120" height="60" as="geometry"/>
                </mxCell>
                <mxCell id="19" value="Soil Sensor (I2C)" style="whiteSpace=wrap;html=1;shadow=1;fontSize=18;fillColor=#f5f5f5;strokeColor=#666666;fontColor=#009900;" parent="1" vertex="1">
                    <mxGeometry x="1037" y="444" width="120" height="60" as="geometry"/>
                </mxCell>
                <mxCell id="20" value="Environmental Sensor (I2C)" style="whiteSpace=wrap;html=1;shadow=1;fontSize=18;fillColor=#f5f5f5;strokeColor=#666666;fontColor=#009900;" parent="1" vertex="1">
                    <mxGeometry x="1037" y="524" width="120" height="60" as="geometry"/>
                </mxCell>
                <mxCell id="21" value="Soil Sensor (I2C)" style="whiteSpace=wrap;html=1;shadow=1;fontSize=18;fillColor=default;strokeColor=#666666;fontColor=#009900;" parent="1" vertex="1">
                    <mxGeometry x="1037" y="444" width="120" height="60" as="geometry"/>
                </mxCell>
                <mxCell id="22" value="Environmental Sensor (I2C)" style="whiteSpace=wrap;html=1;shadow=1;fontSize=18;fillColor=default;strokeColor=#666666;fontColor=#009900;" parent="1" vertex="1">
                    <mxGeometry x="1037" y="524" width="120" height="60" as="geometry"/>
                </mxCell>
                <mxCell id="23" value="Button(s)" style="whiteSpace=wrap;html=1;shadow=1;fontSize=18;fillColor=default;strokeColor=#666666;fontColor=#009900;" parent="1" vertex="1">
                    <mxGeometry x="1037" y="604" width="120" height="60" as="geometry"/>
                </mxCell>
                <mxCell id="24" value="Valve&amp;nbsp;" style="whiteSpace=wrap;html=1;shadow=1;fontSize=18;fillColor=default;strokeColor=#666666;fontColor=#009900;" parent="1" vertex="1">
                    <mxGeometry x="1037" y="684" width="120" height="60" as="geometry"/>
                </mxCell>
                <mxCell id="25" value="&lt;font&gt;Microcontroller&lt;br&gt;(Raspberry Pico W)&lt;br&gt;&lt;/font&gt;" style="whiteSpace=wrap;html=1;shadow=1;fontSize=18;fillColor=default;strokeColor=#666666;fontColor=#009900;" parent="1" vertex="1">
                    <mxGeometry x="787" y="454" width="170" height="280" as="geometry"/>
                </mxCell>
                <mxCell id="26" value="Solarpanel&lt;br&gt;(? W)" style="whiteSpace=wrap;html=1;shadow=1;fontSize=18;fillColor=default;strokeColor=#666666;fontColor=#009900;" parent="1" vertex="1">
                    <mxGeometry x="597" y="504" width="120" height="84" as="geometry"/>
                </mxCell>
                <mxCell id="33" value="" style="edgeStyle=none;html=1;fontColor=#009900;startArrow=classic;startFill=1;entryX=0.806;entryY=0.996;entryDx=0;entryDy=0;entryPerimeter=0;" parent="1" source="32" target="25" edge="1">
                    <mxGeometry relative="1" as="geometry"/>
                </mxCell>
                <mxCell id="32" value="" style="sketch=0;pointerEvents=1;shadow=0;dashed=0;html=1;strokeColor=none;fillColor=#434445;aspect=fixed;labelPosition=center;verticalLabelPosition=bottom;verticalAlign=top;align=center;outlineConnect=0;shape=mxgraph.vvd.datastore;fillStyle=auto;fontColor=#009900;" parent="1" vertex="1">
                    <mxGeometry x="900" y="770" width="50" height="39" as="geometry"/>
                </mxCell>
                <mxCell id="34" value="SD-Card" style="text;html=1;align=center;verticalAlign=middle;resizable=0;points=[];autosize=1;strokeColor=none;fillColor=none;fontColor=#009900;" parent="1" vertex="1">
                    <mxGeometry x="890" y="809" width="70" height="30" as="geometry"/>
                </mxCell>
                <mxCell id="36" value="" style="group" parent="1" vertex="1" connectable="0">
                    <mxGeometry x="1200" y="330" width="326.75" height="92" as="geometry"/>
                </mxCell>
                <UserObject label="&lt;a href=&quot;https://api.dzb-projects.ch/swagger/index.html&quot;&gt;API&lt;/a&gt;" link="https://api.dzb-projects.ch/swagger" id="27">
                    <mxCell style="whiteSpace=wrap;html=1;shadow=1;fontSize=20;fillColor=none;strokeColor=#666666;strokeWidth=2;dashed=1;fontColor=#009900;" parent="36" vertex="1">
                        <mxGeometry x="15" width="213" height="80" as="geometry"/>
                    </mxCell>
                </UserObject>
                <mxCell id="30" value="" style="sketch=0;pointerEvents=1;shadow=0;dashed=0;html=1;strokeColor=none;fillColor=#434445;aspect=fixed;labelPosition=center;verticalLabelPosition=bottom;verticalAlign=top;align=center;outlineConnect=0;shape=mxgraph.vvd.storage;fillStyle=auto;fontColor=#009900;" parent="36" vertex="1">
                    <mxGeometry x="273" y="12" width="37.5" height="50" as="geometry"/>
                </mxCell>
                <mxCell id="31" value="" style="edgeStyle=none;html=1;fontColor=#009900;startArrow=classic;startFill=1;" parent="36" source="27" target="30" edge="1">
                    <mxGeometry relative="1" as="geometry"/>
                </mxCell>
                <mxCell id="35" value="SQL-DB" style="text;html=1;align=center;verticalAlign=middle;resizable=0;points=[];autosize=1;strokeColor=none;fillColor=none;fontColor=#009900;" parent="36" vertex="1">
                    <mxGeometry x="256.75" y="62" width="70" height="30" as="geometry"/>
                </mxCell>
                <mxCell id="38" value="" style="sketch=0;pointerEvents=1;shadow=0;dashed=0;html=1;strokeColor=none;fillColor=#434445;aspect=fixed;labelPosition=center;verticalLabelPosition=bottom;verticalAlign=top;align=center;outlineConnect=0;shape=mxgraph.vvd.tenant_key;fillStyle=auto;fontColor=#009900;" parent="36" vertex="1">
                    <mxGeometry x="20" y="10" width="15.3" height="30" as="geometry"/>
                </mxCell>
                <mxCell id="37" value="" style="sketch=0;pointerEvents=1;shadow=0;dashed=0;html=1;strokeColor=none;fillColor=#434445;aspect=fixed;labelPosition=center;verticalLabelPosition=bottom;verticalAlign=top;align=center;outlineConnect=0;shape=mxgraph.vvd.cpu;fillStyle=auto;fontColor=#009900;" parent="1" vertex="1">
                    <mxGeometry x="848.5" y="500" width="50" height="50" as="geometry"/>
                </mxCell>
                <mxCell id="39" value="" style="sketch=0;pointerEvents=1;shadow=0;dashed=0;html=1;strokeColor=none;fillColor=#434445;aspect=fixed;labelPosition=center;verticalLabelPosition=bottom;verticalAlign=top;align=center;outlineConnect=0;shape=mxgraph.vvd.monitor;fillStyle=auto;fontColor=#009900;" parent="1" vertex="1">
                    <mxGeometry x="1271.75" y="581.75" width="50" height="46.5" as="geometry"/>
                </mxCell>
                <mxCell id="40" value="" style="sketch=0;pointerEvents=1;shadow=0;dashed=0;html=1;strokeColor=none;fillColor=#434445;aspect=fixed;labelPosition=center;verticalLabelPosition=bottom;verticalAlign=top;align=center;outlineConnect=0;shape=mxgraph.vvd.phone;fillStyle=auto;fontColor=#009900;" parent="1" vertex="1">
                    <mxGeometry x="1341.75" y="580" width="29.5" height="50" as="geometry"/>
                </mxCell>
                <mxCell id="42" value="" style="edgeStyle=none;html=1;fontColor=#009900;startArrow=classic;startFill=1;" parent="1" source="41" target="27" edge="1">
                    <mxGeometry relative="1" as="geometry"/>
                </mxCell>
                <mxCell id="41" value="&lt;a href=&quot;https://dzb-projects.ch/&quot;&gt;Wiki / Website&lt;/a&gt;" style="rounded=0;whiteSpace=wrap;html=1;fontColor=#009900;fillStyle=auto;fillColor=none;dashed=1;verticalAlign=top;" parent="1" vertex="1">
                    <mxGeometry x="1240" y="524" width="163" height="146" as="geometry"/>
                </mxCell>
            </root>
        </mxGraphModel>
    </diagram>
</mxfile>